<?xml version="1.0" encoding="UTF-8" standalone="no"?>
<svg
   t="1604397795362"
   class="icon"
   viewBox="0 0 1024 1024"
   version="1.1"
   p-id="1419"
   width="200"
   height="200"
   id="svg10"
   sodipodi:docname="bf.svg"
   inkscape:version="1.1 (c68e22c387, 2021-05-23)"
   xmlns:inkscape="http://www.inkscape.org/namespaces/inkscape"
   xmlns:sodipodi="http://sodipodi.sourceforge.net/DTD/sodipodi-0.dtd"
   xmlns="http://www.w3.org/2000/svg"
   xmlns:svg="http://www.w3.org/2000/svg">
  <sodipodi:namedview
     id="namedview12"
     pagecolor="#505050"
     bordercolor="#ffffff"
     borderopacity="1"
     inkscape:pageshadow="0"
     inkscape:pageopacity="0"
     inkscape:pagecheckerboard="1"
     showgrid="false"
     inkscape:zoom="3.245"
     inkscape:cx="100"
     inkscape:cy="100"
     inkscape:window-width="1440"
     inkscape:window-height="878"
     inkscape:window-x="-6"
     inkscape:window-y="-6"
     inkscape:window-maximized="1"
     inkscape:current-layer="svg10" />
  <defs
     id="defs4">
    <style
       type="text/css"
       id="style2" />
  </defs>
  <path
     d="M511.5 888c208 0 376.7-168.5 376.7-376.3S719.6 135.4 511.5 135.4c-208 0-376.7 168.5-376.7 376.3 0.1 207.8 168.7 376.3 376.7 376.3z m0 70.9c-247.2 0-447.7-200.2-447.7-447.2S264.2 64.5 511.5 64.5c247.2 0 447.6 200.2 447.6 447.2 0.1 247-200.4 447.2-447.6 447.2z m0 0"
     p-id="1420"
     fill="#000000"
     id="path6" />
  <path
     d="M420 652c-19.8 0-36-16.2-36-36V408c0-19.8 16.2-36 36-36s36 16.2 36 36v208c0 19.8-16.2 36-36 36zM612 652c-19.8 0-36-16.2-36-36V408c0-19.8 16.2-36 36-36s36 16.2 36 36v208c0 19.8-16.2 36-36 36z"
     p-id="1421"
     fill="#000000"
     id="path8" />
</svg>
