<?xml version="1.0" encoding="UTF-8" standalone="no"?>
<svg
   t="1604420843252"
   class="icon"
   viewBox="0 0 1024 1024"
   version="1.1"
   p-id="3112"
   width="200"
   height="200"
   id="svg12"
   sodipodi:docname="cd.svg"
   inkscape:version="1.1 (c68e22c387, 2021-05-23)"
   xmlns:inkscape="http://www.inkscape.org/namespaces/inkscape"
   xmlns:sodipodi="http://sodipodi.sourceforge.net/DTD/sodipodi-0.dtd"
   xmlns="http://www.w3.org/2000/svg"
   xmlns:svg="http://www.w3.org/2000/svg">
  <sodipodi:namedview
     id="namedview14"
     pagecolor="#505050"
     bordercolor="#ffffff"
     borderopacity="1"
     inkscape:pageshadow="0"
     inkscape:pageopacity="0"
     inkscape:pagecheckerboard="1"
     showgrid="false"
     inkscape:zoom="3.245"
     inkscape:cx="100"
     inkscape:cy="100"
     inkscape:window-width="1440"
     inkscape:window-height="878"
     inkscape:window-x="-6"
     inkscape:window-y="-6"
     inkscape:window-maximized="1"
     inkscape:current-layer="svg12" />
  <defs
     id="defs4">
    <style
       type="text/css"
       id="style2" />
  </defs>
  <path
     d="M867.995 459.647h-711.99c-27.921 0-52.353 24.434-52.353 52.353s24.434 52.353 52.353 52.353h711.99c27.921 0 52.353-24.434 52.353-52.353s-24.434-52.353-52.353-52.353z"
     p-id="3113"
     fill="#000000"
     id="path6" />
  <path
     d="M867.995 763.291h-711.99c-27.921 0-52.353 24.434-52.353 52.353s24.434 52.353 52.353 52.353h711.99c27.921 0 52.353-24.434 52.353-52.353s-24.434-52.353-52.353-52.353z"
     p-id="3114"
     fill="#000000"
     id="path8" />
  <path
     d="M156.005 260.709h711.99c27.921 0 52.353-24.434 52.353-52.353s-24.434-52.353-52.353-52.353h-711.99c-27.921 0-52.353 24.434-52.353 52.353s24.434 52.353 52.353 52.353z"
     p-id="3115"
     fill="#000000"
     id="path10" />
</svg>
