<?xml version="1.0" encoding="UTF-8" standalone="no"?>
<svg
   t="1604431567056"
   class="icon"
   viewBox="0 0 1024 1024"
   version="1.1"
   p-id="2707"
   width="200"
   height="200"
   id="svg8"
   sodipodi:docname="gb.svg"
   inkscape:version="1.1 (c68e22c387, 2021-05-23)"
   xmlns:inkscape="http://www.inkscape.org/namespaces/inkscape"
   xmlns:sodipodi="http://sodipodi.sourceforge.net/DTD/sodipodi-0.dtd"
   xmlns="http://www.w3.org/2000/svg"
   xmlns:svg="http://www.w3.org/2000/svg">
  <sodipodi:namedview
     id="namedview10"
     pagecolor="#505050"
     bordercolor="#ffffff"
     borderopacity="1"
     inkscape:pageshadow="0"
     inkscape:pageopacity="0"
     inkscape:pagecheckerboard="1"
     showgrid="false"
     inkscape:zoom="3.245"
     inkscape:cx="100"
     inkscape:cy="100"
     inkscape:window-width="1440"
     inkscape:window-height="878"
     inkscape:window-x="-6"
     inkscape:window-y="-6"
     inkscape:window-maximized="1"
     inkscape:current-layer="svg8" />
  <defs
     id="defs4">
    <style
       type="text/css"
       id="style2" />
  </defs>
  <path
     d="M574.55 522.35L904.4 192.5c16.65-16.65 16.65-44.1 0-60.75l-1.8-1.8c-16.65-16.65-44.1-16.65-60.75 0L512 460.25l-329.85-330.3c-16.65-16.65-44.1-16.65-60.75 0l-1.8 1.8c-17.1 16.65-17.1 44.1 0 60.75l329.85 329.85L119.6 852.2c-16.65 16.65-16.65 44.1 0 60.75l1.8 1.8c16.65 16.65 44.1 16.65 60.75 0L512 584.9l329.85 329.85c16.65 16.65 44.1 16.65 60.75 0l1.8-1.8c16.65-16.65 16.65-44.1 0-60.75L574.55 522.35z"
     p-id="2708"
     fill="#000000"
     id="path6" />
</svg>
