<?xml version="1.0" encoding="UTF-8" standalone="no"?>
<svg
   t="1647702515058"
   class="icon"
   viewBox="0 0 1024 1024"
   version="1.1"
   p-id="1169"
   width="200"
   height="200"
   id="svg8"
   sodipodi:docname="下一个 下一首.svg"
   inkscape:version="1.1 (c68e22c387, 2021-05-23)"
   xmlns:inkscape="http://www.inkscape.org/namespaces/inkscape"
   xmlns:sodipodi="http://sodipodi.sourceforge.net/DTD/sodipodi-0.dtd"
   xmlns="http://www.w3.org/2000/svg"
   xmlns:svg="http://www.w3.org/2000/svg">
  <sodipodi:namedview
     id="namedview10"
     pagecolor="#505050"
     bordercolor="#ffffff"
     borderopacity="1"
     inkscape:pageshadow="0"
     inkscape:pageopacity="0"
     inkscape:pagecheckerboard="1"
     showgrid="false"
     inkscape:zoom="3.245"
     inkscape:cx="100"
     inkscape:cy="100"
     inkscape:window-width="1440"
     inkscape:window-height="878"
     inkscape:window-x="-6"
     inkscape:window-y="-6"
     inkscape:window-maximized="1"
     inkscape:current-layer="svg8" />
  <defs
     id="defs4">
    <style
       type="text/css"
       id="style2" />
  </defs>
  <path
     d="M832 160.128c0-17.664-14.336-32-32-32S768 142.464 768 160.128l0 282.88L214.592 134.592c-18.176-10.112-39.936-10.048-58.112 0C138.24 144.768 127.424 162.88 127.424 183.168l0 656.64c0 20.224 10.816 38.464 29.056 48.576C165.568 893.44 175.488 896 185.472 896s19.968-2.56 29.056-7.616L768 579.968l0 284.096c0 17.664 14.336 32 32 32s32-14.336 32-32L832 160.128zM191.808 829.248 188.672 192l573.312 319.488L191.808 829.248z"
     p-id="1170"
     fill="#000000"
     id="path6" />
</svg>
