<?xml version="1.0" encoding="UTF-8" standalone="no"?>
<svg
   t="1622884030824"
   class="icon"
   viewBox="0 0 1024 1024"
   version="1.1"
   p-id="5221"
   width="200"
   height="200"
   id="svg8"
   sodipodi:docname="search.svg"
   inkscape:version="1.1 (c68e22c387, 2021-05-23)"
   xmlns:inkscape="http://www.inkscape.org/namespaces/inkscape"
   xmlns:sodipodi="http://sodipodi.sourceforge.net/DTD/sodipodi-0.dtd"
   xmlns="http://www.w3.org/2000/svg"
   xmlns:svg="http://www.w3.org/2000/svg">
  <sodipodi:namedview
     id="namedview10"
     pagecolor="#505050"
     bordercolor="#ffffff"
     borderopacity="1"
     inkscape:pageshadow="0"
     inkscape:pageopacity="0"
     inkscape:pagecheckerboard="1"
     showgrid="false"
     inkscape:zoom="3.245"
     inkscape:cx="100"
     inkscape:cy="100"
     inkscape:window-width="1440"
     inkscape:window-height="878"
     inkscape:window-x="-6"
     inkscape:window-y="-6"
     inkscape:window-maximized="1"
     inkscape:current-layer="svg8" />
  <defs
     id="defs4">
    <style
       type="text/css"
       id="style2" />
  </defs>
  <path
     d="M446.112323 177.545051c137.567677 0.219798 252.612525 104.59798 266.162424 241.493333 13.562828 136.895354-78.778182 261.818182-213.617777 289.008485-134.852525 27.203232-268.386263-52.156768-308.945455-183.608889s25.018182-272.252121 151.738182-325.779394A267.235556 267.235556 0 0 1 446.112323 177.545051m0-62.060607c-182.794343 0-330.989899 148.195556-330.989899 330.989899s148.195556 330.989899 330.989899 330.989899 330.989899-148.195556 330.989899-330.989899-148.195556-330.989899-330.989899-330.989899z m431.321212 793.341415a30.849293 30.849293 0 0 1-21.94101-9.102223l-157.220202-157.220202c-11.752727-12.179394-11.584646-31.534545 0.37495-43.50707 11.972525-11.972525 31.327677-12.140606 43.494141-0.37495l157.220202 157.220202a31.036768 31.036768 0 0 1 6.723232 33.810101 31.004444 31.004444 0 0 1-28.651313 19.174142z m0 0"
     p-id="5222"
     fill="#000000"
     id="path6" />
</svg>
