<?xml version="1.0" standalone="no"?><!DOCTYPE svg PUBLIC "-//W3C//DTD SVG 1.1//EN" "http://www.w3.org/Graphics/SVG/1.1/DTD/svg11.dtd"><svg t="1675769791945" class="icon" viewBox="0 0 1024 1024" version="1.1" xmlns="http://www.w3.org/2000/svg" p-id="2332" xmlns:xlink="http://www.w3.org/1999/xlink" width="200" height="200"><path d="M319.978667 304.622933V173.085867c-0.085333-23.633067 6.0672-43.204267 29.678933-43.2896h0.196267c23.748267 0.029867 34.082133 19.626667 34.146133 43.392v170.624a41.7536 41.7536 0 0 1-41.9584 41.984H171.003733c-23.739733-0.029867-42.973867-10.752-43.003733-34.5088-0.029867-23.633067 19.089067-29.568 42.7008-29.597867H302.912a17.066667 17.066667 0 0 0 17.066667-17.066667z m0 418.346667a17.066667 17.066667 0 0 0-17.066667-17.066667H170.7008c-23.611733-0.0256-42.730667-5.960533-42.7008-29.5936 0.029867-23.761067 19.264-34.478933 43.003733-34.513066H342.208a41.7536 41.7536 0 0 1 41.792 41.984v170.628266c-0.064 23.765333-10.397867 43.362133-34.146133 43.392h-0.196267c-23.611733-0.085333-29.76-19.6608-29.678933-43.2896v-131.541333z m384.042666-418.346667a17.066667 17.066667 0 0 0 17.066667 17.066667H853.2992c23.611733 0.029867 42.730667 5.9648 42.7008 29.597867-0.029867 23.7568-19.264 34.478933-43.003733 34.5088H681.792a41.7536 41.7536 0 0 1-41.792-41.984v-170.624c0.064-23.765333 10.397867-43.362133 34.146133-43.392h0.196267c23.611733 0.085333 29.76 19.656533 29.678933 43.2896v131.541333z m0 418.346667v131.541333c0.085333 23.6288-6.0672 43.204267-29.678933 43.285334h-0.196267c-23.748267-0.0256-34.082133-19.618133-34.146133-43.387734v-170.624a41.7536 41.7536 0 0 1 41.9584-41.984h171.037867c23.739733 0.029867 42.973867 10.752 43.003733 34.5088 0.029867 23.633067-19.089067 29.568-42.7008 29.597867H721.088a17.066667 17.066667 0 0 0-17.066667 17.066667z" fill="#000000" p-id="2333"></path></svg>