<?xml version="1.0" encoding="UTF-8" standalone="no"?>
<svg
   t="1649040363760"
   class="icon"
   viewBox="0 0 1024 1024"
   version="1.1"
   p-id="4201"
   width="200"
   height="200"
   id="svg8"
   sodipodi:docname="steam.svg"
   inkscape:version="1.1 (c68e22c387, 2021-05-23)"
   xmlns:inkscape="http://www.inkscape.org/namespaces/inkscape"
   xmlns:sodipodi="http://sodipodi.sourceforge.net/DTD/sodipodi-0.dtd"
   xmlns="http://www.w3.org/2000/svg"
   xmlns:svg="http://www.w3.org/2000/svg">
  <sodipodi:namedview
     id="namedview10"
     pagecolor="#505050"
     bordercolor="#ffffff"
     borderopacity="1"
     inkscape:pageshadow="0"
     inkscape:pageopacity="0"
     inkscape:pagecheckerboard="1"
     showgrid="false"
     inkscape:zoom="2.6365627"
     inkscape:cx="93.872222"
     inkscape:cy="100.13037"
     inkscape:window-width="800"
     inkscape:window-height="865"
     inkscape:window-x="653"
     inkscape:window-y="0"
     inkscape:window-maximized="0"
     inkscape:current-layer="svg8" />
  <defs
     id="defs4">
    <style
       type="text/css"
       id="style2" />
  </defs>
  <path
     d="m 515.05075,83.50266 c -226.99963,0 -413.14581,175.08621 -430.762511,397.61862 l 231.719041,95.75703 a 122.01996,122.01996 0 0 1 68.88164,-21.25532 c 2.26964,0 4.50326,0.14411 6.77289,0.21615 L 494.7321,406.61958 v -2.12553 A 163.12559,163.12559 0 0 1 657.71359,241.51256 c 89.84877,0 162.98149,73.16875 162.98149,163.08957 0,89.92081 -73.13272,163.01751 -162.98149,163.01751 h -3.78272 l -146.84185,104.8716 c 0,1.87334 0.1441,3.78272 0.1441,5.72812 A 122.20008,122.20008 0 0 1 385.10508,800.56355 122.92061,122.92061 0 0 1 265.10257,702.32073 L 99.202992,633.61921 C 150.57602,815.08202 317.1601,948.12592 515.05075,948.12592 c 238.7441,0 432.27558,-193.56753 432.27558,-432.31163 0,-238.7441 -193.5675,-432.31163 -432.27558,-432.31163 z m -159.91927,656.0329 -53.06625,-21.97584 c 9.4388,19.5621 25.72253,35.98994 47.33812,45.03247 A 91.902248,91.902248 0 0 0 469.622,642.84186 91.758144,91.758144 0 0 0 352.35748,591.93716 l 54.86755,22.69637 A 67.658158,67.658158 0 0 1 355.1675,739.53556 Z M 766.36792,404.38597 a 108.7624,108.7624 0 0 0 -108.6183,-108.6183 108.6183,108.6183 0 1 0 108.6183,108.6183 z m -189.96494,-0.18013 a 81.616833,81.616833 0 1 1 163.23366,0 81.670872,81.670872 0 0 1 -81.63484,81.59882 81.562795,81.562795 0 0 1 -81.59882,-81.59882 z"
     fill="#000000"
     p-id="4202"
     id="path6"
     style="stroke-width:0.844358" />
</svg>
