<?xml version="1.0" encoding="UTF-8" standalone="no"?>
<svg
   t="1604397775250"
   class="icon"
   viewBox="0 0 1024 1024"
   version="1.1"
   p-id="1225"
   width="200"
   height="200"
   id="svg10"
   sodipodi:docname="zt.svg"
   inkscape:version="1.1 (c68e22c387, 2021-05-23)"
   xmlns:inkscape="http://www.inkscape.org/namespaces/inkscape"
   xmlns:sodipodi="http://sodipodi.sourceforge.net/DTD/sodipodi-0.dtd"
   xmlns="http://www.w3.org/2000/svg"
   xmlns:svg="http://www.w3.org/2000/svg">
  <sodipodi:namedview
     id="namedview12"
     pagecolor="#505050"
     bordercolor="#ffffff"
     borderopacity="1"
     inkscape:pageshadow="0"
     inkscape:pageopacity="0"
     inkscape:pagecheckerboard="1"
     showgrid="false"
     inkscape:zoom="1.4142136"
     inkscape:cx="83.792153"
     inkscape:cy="66.821591"
     inkscape:window-width="1440"
     inkscape:window-height="878"
     inkscape:window-x="-6"
     inkscape:window-y="-6"
     inkscape:window-maximized="1"
     inkscape:current-layer="svg10" />
  <defs
     id="defs4">
    <style
       type="text/css"
       id="style2" />
  </defs>
  <path
     d="M511.5 887.8c207.9 0 376.5-168.4 376.5-376.1 0-207.7-168.6-376.1-376.5-376.1C303.6 135.7 135 304 135 511.7c0 207.7 168.6 376.1 376.5 376.1z m0 71.1c-247.2 0-447.7-200.2-447.7-447.2S264.2 64.5 511.5 64.5c247.2 0 447.6 200.2 447.6 447.2 0.1 247-200.4 447.2-447.6 447.2z m0 0"
     p-id="1226"
     fill="#000000"
     id="path6" />
  <path
     d="M462.5 442.3v172.4l138-86.2-138-86.2z m5.5 239.4c-13.8 8.6-31.2 9.1-45.5 1.2-14.3-7.9-23.1-22.9-23.1-39.2V413.3c0-16.3 8.9-31.3 23.1-39.2 14.3-7.9 31.7-7.4 45.5 1.2l184.5 115.2c13.1 8.2 21 22.5 21 38 0 15.4-8 29.8-21 38L468 681.7z m0 0"
     p-id="1227"
     fill="#000000"
     id="path8" />
</svg>
